<svg width="8" height="15" viewBox="0 0 8 15" fill="none" xmlns="http://www.w3.org/2000/svg">
<path d="M7.29167 1.26689V12.8999C7.29167 13.0988 7.34301 13.2949 7.43798 13.4666L7.82812 14.1667H4.5812L4.6659 14.0169C4.81734 13.7445 4.85328 13.4203 4.76344 13.1179L3.04629 7.27955V12.8999C3.04629 13.0988 3.09763 13.2949 3.1926 13.4666L3.58274 14.1667H0.333252L0.723396 13.4666C0.818365 13.2949 0.8697 13.0988 0.8697 12.8999V1.26689C0.8697 1.06801 0.818365 0.871856 0.723396 0.700222L0.333252 6.10352e-05H3.58274L3.49034 0.166247C3.3389 0.438683 3.30297 0.762882 3.3928 1.06529L5.12022 6.93356V1.26689C5.12022 1.06801 5.06888 0.871856 4.97391 0.700222L4.58377 6.10352e-05H7.83326L7.44311 0.700222C7.34814 0.871856 7.29681 1.06801 7.29681 1.26689H7.29167Z" fill="white"/>
</svg>
